<?xml version="1.0" encoding="UTF-8"?>
<svg version="1.1" xmlns="http://www.w3.org/2000/svg" width="512" height="512">
<path d="M0 0 C4.58199846 2.17042032 6.86842819 4.44284647 9 9 C9.35153062 11.94961228 9.28442652 14.8475427 9.1875 17.8125 C9.17396484 18.60076172 9.16042969 19.38902344 9.14648438 20.20117188 C9.11133456 22.13441169 9.05753361 24.06729682 9 26 C10.61068359 25.93039063 10.61068359 25.93039063 12.25390625 25.859375 C26.94481509 25.40437735 26.94481509 25.40437735 32 30 C35.2027143 34.0881706 36.33009196 37.87998389 36.125 43.0625 C35.34114102 48.2011311 33.20181602 51.89928881 29 55 C22.42482199 57.82461417 16.04748848 57.13297148 9 57 C9 63.27 9 69.54 9 76 C10.45148438 76.11214844 11.90296875 76.22429687 13.3984375 76.33984375 C18.67937732 76.87388181 23.55777518 78.01241237 28.625 79.5625 C29.48818848 79.82571045 30.35137695 80.0889209 31.24072266 80.36010742 C39.65074651 83.03560147 47.35588292 86.61357023 55 91 C55.61069336 91.34933594 56.22138672 91.69867188 56.85058594 92.05859375 C65.93580254 97.35547391 73.48990765 103.67683528 81 111 C81.70511719 111.63164063 82.41023438 112.26328125 83.13671875 112.9140625 C105.44072594 133.45365533 115.39643576 165.21186952 116.90639114 194.60603714 C117.24435742 203.24922275 117.11902246 211.91066854 117.09765625 220.55859375 C117.09578716 222.80159981 117.09436558 225.04460629 117.09336853 227.28761292 C117.08958202 233.14166424 117.07978553 238.99569007 117.06866455 244.84973145 C117.05836653 250.84317683 117.05385307 256.83662641 117.04882812 262.83007812 C117.03815913 274.55339651 117.02113015 286.27669612 117 298 C119.00665792 297.98550415 121.01331584 297.9710083 123.01997375 297.95651245 C127.39863577 298.05268152 131.3232048 299.48092316 134.578125 302.4296875 C138.04784592 306.43781339 139.1271344 309.56179309 139.11352539 314.74682617 C139.11344986 315.70759567 139.11337433 316.66836517 139.11329651 317.6582489 C139.10813522 318.69270645 139.10297394 319.727164 139.09765625 320.79296875 C139.09553383 322.38471672 139.09553383 322.38471672 139.09336853 324.00862122 C139.08776606 327.40160935 139.07521314 330.79453177 139.0625 334.1875 C139.05748532 336.48632717 139.05292236 338.78515538 139.04882812 341.08398438 C139.03779583 346.72267872 139.0210553 352.36133466 139 358 C139.56920166 357.98952637 140.13840332 357.97905273 140.72485352 357.96826172 C143.3373563 357.92634282 145.94978799 357.90056112 148.5625 357.875 C149.45775391 357.85824219 150.35300781 357.84148437 151.27539062 357.82421875 C157.972278 357.7751573 163.54688409 357.87396621 168.8125 362.4375 C173.26355359 367.65159135 174.12132607 371.58765165 174.13371277 378.2996521 C174.13797775 379.34817856 174.14224274 380.39670502 174.14663696 381.477005 C174.14618378 382.61687363 174.14573059 383.75674225 174.14526367 384.93115234 C174.15030159 386.74417595 174.15030159 386.74417595 174.15544128 388.59382629 C174.16330482 391.90176521 174.16661834 395.20964135 174.16725707 398.51758528 C174.16796897 400.58658204 174.17010594 402.65557227 174.17275429 404.72456741 C174.18199936 411.94919501 174.18609021 419.17380418 174.18530273 426.3984375 C174.18470212 433.12229279 174.19525291 439.8460678 174.2110464 446.56990278 C174.22414123 452.35180995 174.22948582 458.13369094 174.22884732 463.91561282 C174.22859291 467.3648458 174.23141257 470.8140074 174.24202538 474.26322556 C174.25354546 478.11220153 174.24894763 481.9610682 174.24291992 485.81005859 C174.24853943 486.94587875 174.25415894 488.08169891 174.25994873 489.25193787 C174.20742229 502.45297428 174.20742229 502.45297428 169.5625 507.8125 C165.55831463 511.23070702 163.54286686 512.25013847 158.33771038 512.25726891 C157.15108293 512.2637178 155.96445548 512.27016669 154.74186963 512.276811 C153.43177845 512.2737138 152.12168727 512.2706166 150.77189636 512.26742554 C149.37114873 512.27116013 147.97040318 512.27576088 146.56966096 512.28115618 C142.71146382 512.29342542 138.85335313 512.29312112 134.99514091 512.29076743 C130.83756214 512.29036025 126.68001145 512.301389 122.52244568 512.31088257 C114.3733498 512.32751532 106.22428286 512.33299315 98.07517143 512.33410732 C91.45248245 512.33505678 84.82980304 512.33916192 78.20711708 512.34550858 C59.44047099 512.36312763 40.6738478 512.37234647 21.90719339 512.37084763 C20.89488744 512.37076772 19.88258149 512.3706878 18.83959961 512.37060547 C17.82606095 512.37052371 16.8125223 512.37044195 15.76827035 512.37035771 C-0.65896866 512.36954474 -17.08611598 512.38868325 -33.51332847 512.4168822 C-50.37098396 512.44559223 -67.22859471 512.45942352 -84.08627528 512.45769465 C-93.55445677 512.45703007 -103.02254217 512.46255202 -112.49070168 512.48405075 C-120.55226391 512.50223789 -128.61368651 512.50663029 -136.67526034 512.4930319 C-140.78943863 512.48648956 -144.90334884 512.48643037 -149.01750183 512.5037384 C-152.78347132 512.51941884 -156.54895908 512.51665755 -160.31491645 512.49917014 C-162.32350503 512.4946288 -164.33210826 512.50979702 -166.34063941 512.52564943 C-177.26267015 512.44154685 -177.26267015 512.44154685 -182 508 C-185.56671772 503.20337962 -186.12290613 498.55615917 -186.13371277 492.7003479 C-186.13797775 491.65182144 -186.14224274 490.60329498 -186.14663696 489.522995 C-186.14618378 488.38312637 -186.14573059 487.24325775 -186.14526367 486.06884766 C-186.14862228 484.86016525 -186.1519809 483.65148285 -186.15544128 482.40617371 C-186.16330482 479.09823479 -186.16661834 475.79035865 -186.16725707 472.48241472 C-186.16796897 470.41341796 -186.17010594 468.34442773 -186.17275429 466.27543259 C-186.18199936 459.05080499 -186.18609021 451.82619582 -186.18530273 444.6015625 C-186.18470212 437.87770721 -186.19525291 431.1539322 -186.2110464 424.43009722 C-186.22414123 418.64819005 -186.22948582 412.86630906 -186.22884732 407.08438718 C-186.22859291 403.6351542 -186.23141257 400.1859926 -186.24202538 396.73677444 C-186.25354546 392.88779847 -186.24894763 389.0389318 -186.24291992 385.18994141 C-186.24853943 384.05412125 -186.25415894 382.91830109 -186.25994873 381.74806213 C-186.20742229 368.54702572 -186.20742229 368.54702572 -181.5625 363.1875 C-176.5045638 358.86974959 -172.66441355 357.86022959 -166.13671875 357.90234375 C-165.25048828 357.90556641 -164.36425781 357.90878906 -163.45117188 357.91210938 C-162.53916016 357.92048828 -161.62714844 357.92886719 -160.6875 357.9375 C-159.75615234 357.94201172 -158.82480469 357.94652344 -157.86523438 357.95117188 C-155.57675627 357.96290766 -153.28841192 357.97932637 -151 358 C-151.00666183 357.41197601 -151.01332367 356.82395203 -151.02018738 356.21810913 C-151.08666884 350.08605427 -151.13185377 343.95410218 -151.16479492 337.82177734 C-151.17986116 335.53462565 -151.20031797 333.24750275 -151.22631836 330.96044922 C-151.26279606 327.66887293 -151.27974834 324.37767938 -151.29296875 321.0859375 C-151.30845261 320.06696381 -151.32393646 319.04799011 -151.33988953 317.99813843 C-151.34117042 312.56836199 -151.10251003 308.66983419 -148 304 C-143.50208778 299.62365297 -139.02919206 297.87631007 -132.80078125 297.953125 C-131.54652344 297.96859375 -130.29226562 297.9840625 -129 298 C-129.00444122 296.78351776 -129.00888245 295.56703552 -129.01345825 294.31369019 C-129.05430263 282.75366506 -129.08412582 271.1936549 -129.10362434 259.63357353 C-129.11398622 253.69285917 -129.12800358 247.75220384 -129.15087891 241.81152344 C-129.17288205 236.06023721 -129.18462544 230.30900716 -129.18975449 224.55768204 C-129.19340164 222.3820622 -129.20052054 220.20644484 -129.21146011 218.03084946 C-129.26457757 207.01178201 -129.09371215 196.0840945 -128.12451172 185.10205078 C-128.04837206 184.22879087 -127.9722324 183.35553097 -127.89378548 182.45580864 C-124.76193885 150.68639958 -107.67405452 121.85410976 -83.28710938 101.57568359 C-66.35007316 88.24381651 -42.987515 76 -21 76 C-21 69.73 -21 63.46 -21 57 C-23.165625 57.061875 -25.33125 57.12375 -27.5625 57.1875 C-35.17398403 57.1644814 -39.09587242 56.58846154 -44.875 51.4375 C-47.9011834 47.38583252 -48.37417001 42.94820749 -48 38 C-46.79645216 33.40606575 -44.74455304 30.6768664 -41.25 27.5 C-35.31051151 24.51058857 -27.44830572 25.72132172 -21 26 C-21.04640625 24.84242187 -21.0928125 23.68484375 -21.140625 22.4921875 C-21.17816248 20.95315094 -21.21456051 19.4140863 -21.25 17.875 C-21.28351563 17.11445313 -21.31703125 16.35390625 -21.3515625 15.5703125 C-21.44373473 10.22432327 -20.64349283 7.17638464 -17 3 C-11.77740143 -1.05630398 -6.34659858 -0.77397544 0 0 Z " fill="#FEF4F4" transform="translate(262,0)"/>
<path d="M0 0 C9.79216618 6.90449525 15.50479361 15.89718005 17.75390625 27.64453125 C17.99502235 30.5360578 17.98933651 33.40087368 17.94921875 36.30078125 C17.94638885 37.08851929 17.94355896 37.87625732 17.94064331 38.68786621 C17.92955794 41.17358389 17.90447635 43.65892475 17.87890625 46.14453125 C17.86886135 47.84244267 17.85973816 49.5403598 17.8515625 51.23828125 C17.82965696 55.37384039 17.79520951 59.50912221 17.75390625 63.64453125 C19.55675583 63.63120758 19.55675583 63.63120758 21.39602661 63.61761475 C32.72553648 63.53651053 44.0549874 63.47655687 55.38472176 63.43728256 C61.20940378 63.41641239 67.03385135 63.38810462 72.85839844 63.34277344 C78.47995176 63.29929615 84.10127964 63.27538985 89.72298813 63.26502228 C91.86720198 63.25763436 94.01140357 63.24320748 96.15552139 63.22161102 C99.16010402 63.19255258 102.16375637 63.18857634 105.16845703 63.19042969 C106.05390701 63.17604858 106.93935699 63.16166748 107.85163879 63.14685059 C113.31787176 63.18330883 116.40896283 64.0144717 120.75390625 67.64453125 C124.0344689 71.3775853 124.8803075 74.48565388 124.86743164 79.39135742 C124.86735611 80.35212692 124.86728058 81.31289642 124.86720276 82.30278015 C124.86204147 83.3372377 124.85688019 84.37169525 124.8515625 85.4375 C124.84944008 87.02924797 124.84944008 87.02924797 124.84727478 88.65315247 C124.84167231 92.0461406 124.82911939 95.43906302 124.81640625 98.83203125 C124.81139157 101.13085842 124.80682861 103.42968663 124.80273438 105.72851562 C124.79170208 111.36720997 124.77496155 117.00586591 124.75390625 122.64453125 C125.32310791 122.63405762 125.89230957 122.62358398 126.47875977 122.61279297 C129.09126255 122.57087407 131.70369424 122.54509237 134.31640625 122.51953125 C135.65928711 122.49439453 135.65928711 122.49439453 137.02929688 122.46875 C143.72618425 122.41968855 149.30079034 122.51849746 154.56640625 127.08203125 C159.01745984 132.2961226 159.87523232 136.2321829 159.88761902 142.94418335 C159.89401649 144.51697304 159.89401649 144.51697304 159.90054321 146.12153625 C159.90009003 147.26140488 159.89963684 148.4012735 159.89916992 149.57568359 C159.90252853 150.784366 159.90588715 151.9930484 159.90934753 153.23835754 C159.91721107 156.54629646 159.92052459 159.8541726 159.92116332 163.16211653 C159.92187522 165.23111329 159.92401219 167.30010352 159.92666054 169.36909866 C159.93590561 176.59372626 159.93999646 183.81833543 159.93920898 191.04296875 C159.93860837 197.76682404 159.94915916 204.49059905 159.96495265 211.21443403 C159.97804748 216.9963412 159.98339207 222.77822219 159.98275357 228.56014407 C159.98249916 232.00937705 159.98531882 235.45853865 159.99593163 238.90775681 C160.00745171 242.75673278 160.00285388 246.60559945 159.99682617 250.45458984 C160.00244568 251.59041 160.00806519 252.72623016 160.01385498 253.89646912 C159.96132854 267.09750553 159.96132854 267.09750553 155.31640625 272.45703125 C150.88571885 276.23932537 148.71279866 276.89354951 142.93928528 276.88504028 C141.89413451 276.88760356 141.89413451 276.88760356 140.82786959 276.89021862 C138.48776297 276.89351891 136.14794163 276.88250112 133.80786133 276.87158203 C132.13256334 276.87101803 130.45726486 276.87133425 128.78196716 276.87246704 C124.22852791 276.873042 119.67519355 276.86126455 115.12177873 276.84731913 C110.36518269 276.8348356 105.60858438 276.83364315 100.85197449 276.83126831 C91.84222907 276.82504654 82.83253205 276.8086263 73.82280797 276.78856933 C63.56659207 276.766232 53.31037389 276.75522236 43.05413973 276.74517846 C21.95402887 276.72426067 0.85398438 276.68757574 -20.24609375 276.64453125 C-20.24609375 260.14453125 -20.24609375 243.64453125 -20.24609375 226.64453125 C-22.22609375 226.31453125 -24.20609375 225.98453125 -26.24609375 225.64453125 C-30.46160048 223.49544939 -32.87066605 221.48943263 -34.64624023 217.05712891 C-35.8963774 212.0291047 -35.72509781 206.83765672 -35.69213867 201.68359375 C-35.68361128 199.64871512 -35.71247269 197.61663483 -35.74414062 195.58203125 C-35.73800339 183.20937475 -35.73800339 183.20937475 -31.24609375 177.64453125 C-27.87507745 174.69489199 -24.7608828 173.64453125 -20.24609375 173.64453125 C-20.24609375 137.34453125 -20.24609375 101.04453125 -20.24609375 63.64453125 C-32.45609375 63.64453125 -44.66609375 63.64453125 -57.24609375 63.64453125 C-57.31529355 58.25463534 -57.37492665 52.86630599 -57.41088867 47.47631836 C-57.42589372 45.64618684 -57.44630434 43.81609079 -57.47241211 41.98608398 C-57.50916281 39.34219567 -57.52590312 36.69878633 -57.5390625 34.0546875 C-57.55454636 33.24806168 -57.57003021 32.44143585 -57.58598328 31.61036682 C-57.58899971 21.22519299 -53.68282197 12.52099484 -46.65234375 4.921875 C-33.63951937 -7.07815881 -15.22618146 -9.18866951 0 0 Z " fill="#EDE0DC" transform="translate(276.24609375,235.35546875)"/>
<path d="M0 0 C4.58199846 2.17042032 6.86842819 4.44284647 9 9 C9.35153062 11.94961228 9.28442652 14.8475427 9.1875 17.8125 C9.17396484 18.60076172 9.16042969 19.38902344 9.14648438 20.20117188 C9.11133456 22.13441169 9.05753361 24.06729682 9 26 C10.61068359 25.93039063 10.61068359 25.93039063 12.25390625 25.859375 C26.94481509 25.40437735 26.94481509 25.40437735 32 30 C35.2027143 34.0881706 36.33009196 37.87998389 36.125 43.0625 C35.34114102 48.2011311 33.20181602 51.89928881 29 55 C22.42482199 57.82461417 16.04748848 57.13297148 9 57 C9 63.27 9 69.54 9 76 C10.45148438 76.11214844 11.90296875 76.22429687 13.3984375 76.33984375 C18.67937732 76.87388181 23.55777518 78.01241237 28.625 79.5625 C29.48818848 79.82571045 30.35137695 80.0889209 31.24072266 80.36010742 C39.65074651 83.03560147 47.35588292 86.61357023 55 91 C55.61069336 91.34933594 56.22138672 91.69867188 56.85058594 92.05859375 C65.93580254 97.35547391 73.48990765 103.67683528 81 111 C81.70511719 111.63164063 82.41023437 112.26328125 83.13671875 112.9140625 C101.59857752 129.91544968 113.39143036 157.37764755 116 182 C116 187.28 116 192.56 116 198 C35.48 198 -45.04 198 -128 198 C-128 164.51711007 -117.2395273 136.25701974 -94 112 C-93.31550781 111.25234375 -92.63101563 110.5046875 -91.92578125 109.734375 C-74.65852946 91.47768734 -49.73072387 79.64990998 -25 76 C-23.68 76 -22.36 76 -21 76 C-21 69.73 -21 63.46 -21 57 C-23.165625 57.061875 -25.33125 57.12375 -27.5625 57.1875 C-35.17398403 57.1644814 -39.09587242 56.58846154 -44.875 51.4375 C-47.9011834 47.38583252 -48.37417001 42.94820749 -48 38 C-46.79645216 33.40606575 -44.74455304 30.6768664 -41.25 27.5 C-35.31051151 24.51058857 -27.44830572 25.72132172 -21 26 C-21.04640625 24.84242187 -21.0928125 23.68484375 -21.140625 22.4921875 C-21.17816248 20.95315094 -21.21456051 19.4140863 -21.25 17.875 C-21.28351563 17.11445313 -21.31703125 16.35390625 -21.3515625 15.5703125 C-21.44373473 10.22432327 -20.64349283 7.17638464 -17 3 C-11.77740143 -1.05630398 -6.34659858 -0.77397544 0 0 Z " fill="#B1D5F1" transform="translate(262,0)"/>
<path d="M0 0 C9.79216618 6.90449525 15.50479361 15.89718005 17.75390625 27.64453125 C17.99502235 30.5360578 17.98933651 33.40087368 17.94921875 36.30078125 C17.94638885 37.08851929 17.94355896 37.87625732 17.94064331 38.68786621 C17.92955794 41.17358389 17.90447635 43.65892475 17.87890625 46.14453125 C17.86886135 47.84244267 17.85973816 49.5403598 17.8515625 51.23828125 C17.82965696 55.37384039 17.79520951 59.50912221 17.75390625 63.64453125 C19.55675583 63.63120758 19.55675583 63.63120758 21.39602661 63.61761475 C32.72553648 63.53651053 44.0549874 63.47655687 55.38472176 63.43728256 C61.20940378 63.41641239 67.03385135 63.38810462 72.85839844 63.34277344 C78.47995176 63.29929615 84.10127964 63.27538985 89.72298813 63.26502228 C91.86720198 63.25763436 94.01140357 63.24320748 96.15552139 63.22161102 C99.16010402 63.19255258 102.16375637 63.18857634 105.16845703 63.19042969 C106.05390701 63.17604858 106.93935699 63.16166748 107.85163879 63.14685059 C113.31787176 63.18330883 116.40896283 64.0144717 120.75390625 67.64453125 C133.19690148 81.80380169 124.75390625 111.98248256 124.75390625 123.64453125 C76.90390625 123.64453125 29.05390625 123.64453125 -20.24609375 123.64453125 C-20.24609375 103.84453125 -20.24609375 84.04453125 -20.24609375 63.64453125 C-32.45609375 63.64453125 -44.66609375 63.64453125 -57.24609375 63.64453125 C-57.31529355 58.25463534 -57.37492665 52.86630599 -57.41088867 47.47631836 C-57.42589372 45.64618684 -57.44630434 43.81609079 -57.47241211 41.98608398 C-57.50916281 39.34219567 -57.52590312 36.69878633 -57.5390625 34.0546875 C-57.55454636 33.24806168 -57.57003021 32.44143585 -57.58598328 31.61036682 C-57.58899971 21.22519299 -53.68282197 12.52099484 -46.65234375 4.921875 C-33.63951937 -7.07815881 -15.22618146 -9.18866951 0 0 Z " fill="#CCBEB9" transform="translate(276.24609375,235.35546875)"/>
<path d="M0 0 C34.8452401 0 63.24204515 11.41519741 88.125 35.625 C111.09524293 58.75027625 122 88.77745653 122 121 C81.74 121 41.48 121 0 121 C0 81.07 0 41.14 0 0 Z " fill="#8BB9FE" transform="translate(256,76)"/>
<path d="M0 0 C0 33.33 0 66.66 0 101 C2.64 101 5.28 101 8 101 C8 101.33 8 101.66 8 102 C-22.69 102 -53.38 102 -85 102 C-85.33 90.12 -85.66 78.24 -86 66 C-89.87759301 53.39782273 -93.57589469 44.53945295 -105 38 C-111.05465435 35.27409501 -116.37181261 33.94688391 -123 33 C-123 22.44 -123 11.88 -123 1 C-107.11044633 0.86957294 -91.22089239 0.73917962 -75.33133793 0.60884857 C-67.95404607 0.54833665 -60.57675433 0.48780932 -53.19946289 0.42724609 C-46.77167852 0.3744778 -40.34389392 0.32173804 -33.91610903 0.26903296 C-30.51061672 0.24110837 -27.10512455 0.21316921 -23.69963264 0.18519592 C-19.90400345 0.15402514 -16.10837385 0.12290478 -12.31274414 0.09179688 C-11.17554932 0.08244614 -10.03835449 0.0730954 -8.86669922 0.0634613 C-7.32484703 0.05084007 -7.32484703 0.05084007 -5.75184631 0.03796387 C-4.85309815 0.03058952 -3.95434999 0.02321518 -3.02836704 0.01561737 C-1 0 -1 0 0 0 Z " fill="#EEE1DD" transform="translate(379,197)"/>
<path d="M0 0 C40.59 0.33 81.18 0.66 123 1 C123 11.56 123 22.12 123 33 C119.37 33.66 115.74 34.32 112 35 C101.43198064 38.69811425 94.43187134 45.30227467 89.2265625 55.05859375 C86.5158222 61.55919072 85.69369766 67.69533821 85.5859375 74.65625 C85.56657135 75.44398804 85.5472052 76.23172607 85.5272522 77.04333496 C85.46806454 79.52878412 85.42131774 82.01428115 85.375 84.5 C85.33676405 86.19793548 85.29770916 87.89585273 85.2578125 89.59375 C85.1624142 93.7290164 85.07816258 97.86437338 85 102 C74.06503529 102.02312297 63.13007634 102.04091485 52.1950922 102.05181217 C47.11808982 102.0570411 42.04110411 102.06413892 36.96411133 102.07543945 C32.06879448 102.08626799 27.17349371 102.09227676 22.27816582 102.09487724 C20.40617049 102.09673155 18.53417609 102.10035228 16.66218758 102.10573006 C14.04959301 102.11294004 11.43706573 102.11399096 8.82446289 102.11352539 C8.04259613 102.11712067 7.26072937 102.12071594 6.45516968 102.12442017 C1.11405216 102.11405216 1.11405216 102.11405216 0 101 C-0.09535055 97.86436909 -0.12549573 94.75089396 -0.11352539 91.61499023 C-0.11364593 90.61373895 -0.11376646 89.61248766 -0.11389065 88.58089542 C-0.11314122 85.32343933 -0.10551164 82.06603968 -0.09765625 78.80859375 C-0.09618692 76.80407743 -0.09516616 74.79956073 -0.09460449 72.79504395 C-0.08935054 65.34252347 -0.07538947 57.89001119 -0.0625 50.4375 C-0.041875 33.793125 -0.02125 17.14875 0 0 Z " fill="#FEF5F5" transform="translate(133,197)"/>
<path d="M0 0 C0.33 0 0.66 0 1 0 C1 11.88 1 23.76 1 36 C13.21 36 25.42 36 38 36 C38 55.8 38 75.6 38 96 C-9.85 96 -57.7 96 -107 96 C-107 47 -107 47 -104 41 C-98.77370768 35.91495883 -93.41403286 34.76402742 -86.35157776 34.81462097 C-85.50353073 34.83116226 -84.6554837 34.84770355 -83.78173828 34.86474609 C-82.87378006 34.87420761 -81.96582184 34.88366913 -81.03034973 34.89341736 C-78.0434601 34.92696728 -75.05699662 34.97511749 -72.0703125 35.0234375 C-69.9938161 35.0496178 -67.91730799 35.07488374 -65.84078979 35.09927368 C-60.38595716 35.16579543 -54.93137202 35.24471633 -49.47674561 35.32623291 C-43.90646841 35.4072791 -38.33604642 35.47658068 -32.765625 35.546875 C-21.84356837 35.68643181 -10.92177887 35.84017525 0 36 C0 24.12 0 12.24 0 0 Z " fill="#EDE0DC" transform="translate(218,263)"/>
<path d="M0 0 C10.21639401 7.20361997 14.76597838 15.69281976 17.75390625 27.64453125 C17.75390625 39.52453125 17.75390625 51.40453125 17.75390625 63.64453125 C-6.99609375 63.64453125 -31.74609375 63.64453125 -57.24609375 63.64453125 C-57.30796875 57.39515625 -57.36984375 51.14578125 -57.43359375 44.70703125 C-57.46090576 42.75289307 -57.48821777 40.79875488 -57.51635742 38.78540039 C-57.52513246 37.20850235 -57.53277398 35.63159742 -57.5390625 34.0546875 C-57.5544104 33.25865112 -57.5697583 32.46261475 -57.58557129 31.64245605 C-57.5903396 21.24277189 -53.69424113 12.53333761 -46.65234375 4.921875 C-33.63951937 -7.07815881 -15.22618146 -9.18866951 0 0 Z " fill="#766D6D" transform="translate(276.24609375,235.35546875)"/>
<path d="M0 0 C12.68282629 0 18.70880815 1.93658032 27.80078125 10.62890625 C34.95887433 18.34642401 37.3223452 25.94962011 37.1953125 36.3359375 C37.1924826 37.21528961 37.18965271 38.09464172 37.18673706 39.00064087 C37.17559712 41.79223594 37.15050411 44.5835029 37.125 47.375 C37.1149622 49.27473493 37.10583775 51.17447492 37.09765625 53.07421875 C37.07738484 57.71637205 37.03822471 62.35782141 37 67 C24.79 67 12.58 67 0 67 C0 44.89 0 22.78 0 0 Z " fill="#5C5455" transform="translate(256,231)"/>
<path d="M0 0 C6.21029673 0 7.44462468 0.25446918 12 4 C15.54792711 8.46405853 15.36528317 12.37415849 15.1875 17.8125 C15.17396484 18.60076172 15.16042969 19.38902344 15.14648438 20.20117188 C15.11133456 22.13441169 15.05753361 24.06729682 15 26 C16.61068359 25.93039063 16.61068359 25.93039063 18.25390625 25.859375 C32.94481509 25.40437735 32.94481509 25.40437735 38 30 C41.2027143 34.0881706 42.33009196 37.87998389 42.125 43.0625 C41.34114102 48.2011311 39.20181602 51.89928881 35 55 C28.42482199 57.82461417 22.04748848 57.13297148 15 57 C15 63.27 15 69.54 15 76 C10.05 76 5.1 76 0 76 C0 50.92 0 25.84 0 0 Z " fill="#CCBEB9" transform="translate(256,0)"/>
<path d="M0 0 C0 25.08 0 50.16 0 76 C-4.95 76 -9.9 76 -15 76 C-15 69.73 -15 63.46 -15 57 C-17.165625 57.061875 -19.33125 57.12375 -21.5625 57.1875 C-29.17398403 57.1644814 -33.09587242 56.58846154 -38.875 51.4375 C-41.9011834 47.38583252 -42.37417001 42.94820749 -42 38 C-40.79645216 33.40606575 -38.74455304 30.6768664 -35.25 27.5 C-29.31051151 24.51058857 -21.44830572 25.72132172 -15 26 C-15.04640625 24.84242187 -15.0928125 23.68484375 -15.140625 22.4921875 C-15.17816248 20.95315094 -15.21456051 19.4140863 -15.25 17.875 C-15.28351563 17.11445313 -15.31703125 16.35390625 -15.3515625 15.5703125 C-15.44402376 10.20755915 -14.54751519 7.26221605 -11 3 C-6.88150105 -0.25144654 -5.67158558 0 0 0 Z " fill="#EDE1DD" transform="translate(256,0)"/>
<path d="M0 0 C3.5677811 2.35149209 5.84221079 4.99692157 7.75 8.8125 C8.00945808 13.28842022 8.02111148 17.76824262 8.04516602 22.25073242 C8.06230297 24.47443377 8.10617649 26.69661801 8.15039062 28.91992188 C8.16052486 30.34634328 8.16903868 31.77277729 8.17578125 33.19921875 C8.19036377 34.49045654 8.20494629 35.78169434 8.2199707 37.11206055 C7.59038714 42.06925436 5.80649889 45.85882606 2.109375 49.37109375 C-2.23885456 51.74573368 -6.28990325 52.88750196 -11.25 51.8125 C-15.66978844 50.02240647 -18.41722687 48.15525118 -20.953125 44.06640625 C-23.09218763 38.59640476 -22.73304995 32.63831049 -22.69604492 26.8515625 C-22.68751753 24.81668387 -22.71637894 22.78460358 -22.74804688 20.75 C-22.74192948 8.41733122 -22.74192948 8.41733122 -18.25 2.8125 C-13.03108336 -2.1454708 -6.565322 -2.39886766 0 0 Z " fill="#5D5556" transform="translate(263.25,410.1875)"/>
<path d="M0 0 C4.10690961 3.37867409 5.66816008 6.61966281 6.27416992 11.81030273 C6.40577992 15.03358211 6.45661399 18.23898127 6.41601562 21.46459961 C6.39460954 23.48869134 6.41585154 25.50922102 6.44140625 27.53320312 C6.41183425 34.96686356 6.10219431 40.33034429 1.89453125 46.55859375 C-2.05329933 49.9064056 -5.93519429 51.24905598 -11.12109375 50.9375 C-16.1738243 49.97270696 -19.07318836 47.83409129 -22.27734375 43.875 C-25.22304648 38.44271103 -24.69983676 32.18471196 -24.62695312 26.17041016 C-24.60551314 24.06295707 -24.62680608 21.95891141 -24.65234375 19.8515625 C-24.67981393 7.20055989 -24.67981393 7.20055989 -20.10546875 1.55859375 C-14.02480529 -4.09684848 -7.08748902 -3.24783102 0 0 Z " fill="#5D5556" transform="translate(347.10546875,411.44140625)"/>
<path d="M0 0 C4.17148783 3.43180133 5.67837495 6.64460269 6.27416992 11.92016602 C6.40591488 15.27191897 6.45664317 18.59422333 6.41601562 21.94677734 C6.39457564 24.05423043 6.41586858 26.15827609 6.44140625 28.265625 C6.46980216 40.99538824 6.46980216 40.99538824 1.89453125 46.55859375 C-1.55633144 49.39755089 -5.28876736 50.44396899 -9.66796875 51.05859375 C-13.8360028 50.45233425 -16.94013552 49.30927179 -20.10546875 46.55859375 C-24.67495117 39.80691686 -24.72818266 33.53979035 -24.62695312 25.5222168 C-24.60546798 23.49602116 -24.62684293 21.47335479 -24.65234375 19.44726562 C-24.60349094 7.17910262 -24.60349094 7.17910262 -20.10546875 1.55859375 C-14.02480529 -4.09684848 -7.08748902 -3.24783102 0 0 Z " fill="#776E6E" transform="translate(183.10546875,411.44140625)"/>
<path d="M0 0 C0 17.49 0 34.98 0 53 C-5.67712142 52.0538131 -7.76786885 51.57379964 -12 48 C-15.81351685 41.72848177 -15.49201549 35.22781887 -15.44604492 28.0390625 C-15.43751753 26.00418387 -15.46637894 23.97210358 -15.49804688 21.9375 C-15.49190964 9.5648435 -15.49190964 9.5648435 -11 4 C-7.6289837 1.05036074 -4.51478905 0 0 0 Z " fill="#776E6E" transform="translate(256,409)"/>
</svg>
